<mxfile host="app.diagrams.net" modified="2022-08-19T15:34:46.939Z" agent="5.0 (Macintosh; Intel Mac OS X 10_15_7) AppleWebKit/537.36 (KHTML, like Gecko) Chrome/104.0.0.0 Safari/537.36" etag="bzkwImq-c2m5cih4ghdv" version="17.2.4" type="github">
  <diagram id="oEN0UopW_Hhm3qJJgfKZ" name="第 1 页">
    <mxGraphModel dx="2037" dy="2325" grid="1" gridSize="10" guides="1" tooltips="1" connect="1" arrows="1" fold="1" page="1" pageScale="1" pageWidth="827" pageHeight="1169" math="0" shadow="0">
      <root>
        <mxCell id="0" />
        <mxCell id="1" parent="0" />
        <mxCell id="aYjI6461RRGYp5ql17L--451" style="edgeStyle=orthogonalEdgeStyle;rounded=0;orthogonalLoop=1;jettySize=auto;html=1;exitX=1;exitY=0.5;exitDx=0;exitDy=0;entryX=0;entryY=0.5;entryDx=0;entryDy=0;" parent="1" source="aYjI6461RRGYp5ql17L--437" target="aYjI6461RRGYp5ql17L--450" edge="1">
          <mxGeometry relative="1" as="geometry" />
        </mxCell>
        <mxCell id="aYjI6461RRGYp5ql17L--437" value="Data" style="rounded=0;whiteSpace=wrap;html=1;" parent="1" vertex="1">
          <mxGeometry x="70" y="60" width="120" height="60" as="geometry" />
        </mxCell>
        <mxCell id="aYjI6461RRGYp5ql17L--453" value="" style="edgeStyle=orthogonalEdgeStyle;rounded=0;orthogonalLoop=1;jettySize=auto;html=1;" parent="1" source="aYjI6461RRGYp5ql17L--450" target="aYjI6461RRGYp5ql17L--452" edge="1">
          <mxGeometry relative="1" as="geometry" />
        </mxCell>
        <mxCell id="aYjI6461RRGYp5ql17L--450" value="observer()" style="rounded=0;whiteSpace=wrap;html=1;" parent="1" vertex="1">
          <mxGeometry x="294" y="60" width="120" height="60" as="geometry" />
        </mxCell>
        <mxCell id="aYjI6461RRGYp5ql17L--457" value="" style="edgeStyle=orthogonalEdgeStyle;rounded=0;orthogonalLoop=1;jettySize=auto;html=1;" parent="1" source="aYjI6461RRGYp5ql17L--452" target="aYjI6461RRGYp5ql17L--456" edge="1">
          <mxGeometry relative="1" as="geometry" />
        </mxCell>
        <mxCell id="aYjI6461RRGYp5ql17L--452" value="new Observer()" style="rounded=0;whiteSpace=wrap;html=1;" parent="1" vertex="1">
          <mxGeometry x="510" y="60" width="120" height="60" as="geometry" />
        </mxCell>
        <mxCell id="aYjI6461RRGYp5ql17L--455" value="" style="edgeStyle=orthogonalEdgeStyle;rounded=0;orthogonalLoop=1;jettySize=auto;html=1;" parent="1" source="aYjI6461RRGYp5ql17L--454" target="aYjI6461RRGYp5ql17L--452" edge="1">
          <mxGeometry relative="1" as="geometry" />
        </mxCell>
        <mxCell id="aYjI6461RRGYp5ql17L--454" value="new Dep()" style="rounded=0;whiteSpace=wrap;html=1;" parent="1" vertex="1">
          <mxGeometry x="510" y="-60" width="120" height="60" as="geometry" />
        </mxCell>
        <mxCell id="aYjI6461RRGYp5ql17L--456" value="defineReactive" style="whiteSpace=wrap;html=1;rounded=0;" parent="1" vertex="1">
          <mxGeometry x="710" y="60" width="120" height="60" as="geometry" />
        </mxCell>
        <mxCell id="2VksLgnImFCW1rFduUMJ-3" value="" style="edgeStyle=orthogonalEdgeStyle;rounded=0;orthogonalLoop=1;jettySize=auto;html=1;entryX=0.5;entryY=0;entryDx=0;entryDy=0;exitX=1;exitY=0;exitDx=0;exitDy=0;" edge="1" parent="1" source="aYjI6461RRGYp5ql17L--452" target="2VksLgnImFCW1rFduUMJ-17">
          <mxGeometry relative="1" as="geometry">
            <mxPoint x="827" y="-29.999999999999773" as="sourcePoint" />
            <mxPoint x="955" y="560" as="targetPoint" />
            <Array as="points">
              <mxPoint x="630" y="90" />
              <mxPoint x="670" y="90" />
              <mxPoint x="670" y="40" />
              <mxPoint x="955" y="40" />
            </Array>
          </mxGeometry>
        </mxCell>
        <mxCell id="aYjI6461RRGYp5ql17L--468" value="set" style="whiteSpace=wrap;html=1;direction=east;" parent="1" vertex="1">
          <mxGeometry x="647" y="170" width="100" height="40" as="geometry" />
        </mxCell>
        <mxCell id="aYjI6461RRGYp5ql17L--469" value="" style="edgeStyle=elbowEdgeStyle;elbow=vertical;html=1;rounded=0;exitX=0.475;exitY=1;exitDx=0;exitDy=0;exitPerimeter=0;" parent="1" source="aYjI6461RRGYp5ql17L--456" target="aYjI6461RRGYp5ql17L--468" edge="1">
          <mxGeometry relative="1" as="geometry">
            <mxPoint x="767" y="120" as="sourcePoint" />
          </mxGeometry>
        </mxCell>
        <mxCell id="aYjI6461RRGYp5ql17L--470" value="get" style="whiteSpace=wrap;html=1;direction=east;" parent="1" vertex="1">
          <mxGeometry x="787" y="170" width="100" height="40" as="geometry" />
        </mxCell>
        <mxCell id="aYjI6461RRGYp5ql17L--471" value="" style="edgeStyle=elbowEdgeStyle;elbow=vertical;html=1;rounded=0;exitX=0.475;exitY=1;exitDx=0;exitDy=0;exitPerimeter=0;" parent="1" source="aYjI6461RRGYp5ql17L--456" target="aYjI6461RRGYp5ql17L--470" edge="1">
          <mxGeometry relative="1" as="geometry">
            <mxPoint x="767" y="120" as="sourcePoint" />
          </mxGeometry>
        </mxCell>
        <mxCell id="2VksLgnImFCW1rFduUMJ-25" style="edgeStyle=orthogonalEdgeStyle;rounded=0;orthogonalLoop=1;jettySize=auto;html=1;exitX=0;exitY=0.5;exitDx=0;exitDy=0;entryX=0;entryY=0.5;entryDx=0;entryDy=0;fontSize=12;" edge="1" parent="1" source="2VksLgnImFCW1rFduUMJ-1" target="2VksLgnImFCW1rFduUMJ-10">
          <mxGeometry relative="1" as="geometry" />
        </mxCell>
        <mxCell id="2VksLgnImFCW1rFduUMJ-1" value="" style="rounded=0;whiteSpace=wrap;html=1;" vertex="1" parent="1">
          <mxGeometry x="500" y="250" width="120" height="200" as="geometry" />
        </mxCell>
        <mxCell id="2VksLgnImFCW1rFduUMJ-5" value="&lt;font style=&quot;font-size: 12px&quot;&gt;deps(Dep instance item)&lt;br style=&quot;font-size: 12px&quot;&gt;存放该 watcher的所有依赖deps&lt;/font&gt;" style="whiteSpace=wrap;html=1;rounded=0;fontSize=12;" vertex="1" parent="1">
          <mxGeometry x="230" y="315" width="220" height="60" as="geometry" />
        </mxCell>
        <mxCell id="2VksLgnImFCW1rFduUMJ-8" value="" style="edgeStyle=orthogonalEdgeStyle;rounded=0;orthogonalLoop=1;jettySize=auto;html=1;fontSize=12;" edge="1" parent="1" source="2VksLgnImFCW1rFduUMJ-7" target="2VksLgnImFCW1rFduUMJ-1">
          <mxGeometry relative="1" as="geometry">
            <Array as="points">
              <mxPoint x="640" y="300" />
              <mxPoint x="640" y="300" />
            </Array>
          </mxGeometry>
        </mxCell>
        <mxCell id="2VksLgnImFCW1rFduUMJ-7" value="Dep.target&lt;br&gt;全局动态变化的 watcher" style="rounded=0;whiteSpace=wrap;html=1;fontSize=12;" vertex="1" parent="1">
          <mxGeometry x="710" y="270" width="120" height="60" as="geometry" />
        </mxCell>
        <mxCell id="2VksLgnImFCW1rFduUMJ-26" value="" style="edgeStyle=orthogonalEdgeStyle;rounded=0;orthogonalLoop=1;jettySize=auto;html=1;fontSize=12;" edge="1" parent="1" source="2VksLgnImFCW1rFduUMJ-10" target="2VksLgnImFCW1rFduUMJ-5">
          <mxGeometry relative="1" as="geometry">
            <Array as="points">
              <mxPoint x="480" y="345" />
              <mxPoint x="480" y="345" />
            </Array>
          </mxGeometry>
        </mxCell>
        <mxCell id="2VksLgnImFCW1rFduUMJ-10" value="deps" style="rounded=0;whiteSpace=wrap;html=1;fontSize=12;" vertex="1" parent="1">
          <mxGeometry x="520" y="330" width="80" height="30" as="geometry" />
        </mxCell>
        <mxCell id="2VksLgnImFCW1rFduUMJ-13" value="addDep" style="rounded=0;whiteSpace=wrap;html=1;fontSize=12;" vertex="1" parent="1">
          <mxGeometry x="520" y="370" width="80" height="30" as="geometry" />
        </mxCell>
        <mxCell id="2VksLgnImFCW1rFduUMJ-14" value="new Watcher()" style="text;html=1;strokeColor=none;fillColor=none;align=center;verticalAlign=middle;whiteSpace=wrap;rounded=0;fontSize=12;" vertex="1" parent="1">
          <mxGeometry x="530" y="260" width="60" height="30" as="geometry" />
        </mxCell>
        <mxCell id="2VksLgnImFCW1rFduUMJ-16" value="subs(Watcher instance item)&lt;br&gt;存放所有依赖于该属性行的 watchers" style="whiteSpace=wrap;html=1;rounded=0;" vertex="1" parent="1">
          <mxGeometry x="1060" y="315" width="230" height="60" as="geometry" />
        </mxCell>
        <mxCell id="2VksLgnImFCW1rFduUMJ-21" value="" style="edgeStyle=orthogonalEdgeStyle;rounded=0;orthogonalLoop=1;jettySize=auto;html=1;fontSize=12;exitX=1;exitY=0.5;exitDx=0;exitDy=0;" edge="1" parent="1" source="2VksLgnImFCW1rFduUMJ-23" target="2VksLgnImFCW1rFduUMJ-16">
          <mxGeometry relative="1" as="geometry" />
        </mxCell>
        <mxCell id="2VksLgnImFCW1rFduUMJ-24" style="edgeStyle=orthogonalEdgeStyle;rounded=0;orthogonalLoop=1;jettySize=auto;html=1;exitX=1;exitY=0.5;exitDx=0;exitDy=0;entryX=1;entryY=0.5;entryDx=0;entryDy=0;fontSize=12;" edge="1" parent="1" source="2VksLgnImFCW1rFduUMJ-17" target="2VksLgnImFCW1rFduUMJ-23">
          <mxGeometry relative="1" as="geometry" />
        </mxCell>
        <mxCell id="2VksLgnImFCW1rFduUMJ-17" value="" style="rounded=0;whiteSpace=wrap;html=1;" vertex="1" parent="1">
          <mxGeometry x="895" y="250" width="120" height="200" as="geometry" />
        </mxCell>
        <mxCell id="2VksLgnImFCW1rFduUMJ-18" value="depend" style="rounded=0;whiteSpace=wrap;html=1;fontSize=12;" vertex="1" parent="1">
          <mxGeometry x="915" y="370" width="80" height="30" as="geometry" />
        </mxCell>
        <mxCell id="2VksLgnImFCW1rFduUMJ-19" value="notify" style="rounded=0;whiteSpace=wrap;html=1;fontSize=12;direction=west;" vertex="1" parent="1">
          <mxGeometry x="915" y="410" width="80" height="30" as="geometry" />
        </mxCell>
        <mxCell id="2VksLgnImFCW1rFduUMJ-20" value="new Dep()" style="text;html=1;strokeColor=none;fillColor=none;align=center;verticalAlign=middle;whiteSpace=wrap;rounded=0;fontSize=12;" vertex="1" parent="1">
          <mxGeometry x="925" y="260" width="60" height="30" as="geometry" />
        </mxCell>
        <mxCell id="2VksLgnImFCW1rFduUMJ-22" value="update" style="rounded=0;whiteSpace=wrap;html=1;fontSize=12;" vertex="1" parent="1">
          <mxGeometry x="520" y="410" width="80" height="30" as="geometry" />
        </mxCell>
        <mxCell id="2VksLgnImFCW1rFduUMJ-27" value="" style="edgeStyle=orthogonalEdgeStyle;rounded=0;orthogonalLoop=1;jettySize=auto;html=1;fontSize=12;" edge="1" parent="1" source="2VksLgnImFCW1rFduUMJ-23" target="2VksLgnImFCW1rFduUMJ-16">
          <mxGeometry relative="1" as="geometry" />
        </mxCell>
        <mxCell id="2VksLgnImFCW1rFduUMJ-23" value="subs" style="rounded=0;whiteSpace=wrap;html=1;fontSize=12;" vertex="1" parent="1">
          <mxGeometry x="915" y="330" width="80" height="30" as="geometry" />
        </mxCell>
        <mxCell id="2VksLgnImFCW1rFduUMJ-29" value="" style="curved=1;endArrow=classic;html=1;rounded=0;fontSize=12;exitX=0.5;exitY=1;exitDx=0;exitDy=0;entryX=0;entryY=0.5;entryDx=0;entryDy=0;" edge="1" parent="1" source="aYjI6461RRGYp5ql17L--470" target="2VksLgnImFCW1rFduUMJ-18">
          <mxGeometry width="50" height="50" relative="1" as="geometry">
            <mxPoint x="810" y="280" as="sourcePoint" />
            <mxPoint x="860" y="230" as="targetPoint" />
            <Array as="points">
              <mxPoint x="880" y="290" />
              <mxPoint x="870" y="330" />
            </Array>
          </mxGeometry>
        </mxCell>
        <mxCell id="2VksLgnImFCW1rFduUMJ-30" value="" style="curved=1;endArrow=classic;html=1;rounded=0;fontSize=12;exitX=0;exitY=0.5;exitDx=0;exitDy=0;entryX=1;entryY=0.5;entryDx=0;entryDy=0;" edge="1" parent="1" source="2VksLgnImFCW1rFduUMJ-18" target="2VksLgnImFCW1rFduUMJ-13">
          <mxGeometry width="50" height="50" relative="1" as="geometry">
            <mxPoint x="780" y="350" as="sourcePoint" />
            <mxPoint x="830" y="300" as="targetPoint" />
            <Array as="points">
              <mxPoint x="840" y="370" />
              <mxPoint x="770" y="310" />
            </Array>
          </mxGeometry>
        </mxCell>
        <mxCell id="2VksLgnImFCW1rFduUMJ-31" value="" style="curved=1;endArrow=classic;html=1;rounded=0;fontSize=12;exitX=0.5;exitY=1;exitDx=0;exitDy=0;entryX=1;entryY=0.5;entryDx=0;entryDy=0;" edge="1" parent="1" source="aYjI6461RRGYp5ql17L--468" target="2VksLgnImFCW1rFduUMJ-19">
          <mxGeometry width="50" height="50" relative="1" as="geometry">
            <mxPoint x="780" y="350" as="sourcePoint" />
            <mxPoint x="830" y="300" as="targetPoint" />
            <Array as="points">
              <mxPoint x="820" y="250" />
              <mxPoint x="840" y="260" />
            </Array>
          </mxGeometry>
        </mxCell>
      </root>
    </mxGraphModel>
  </diagram>
</mxfile>
